<?xml version="1.0" encoding="UTF-8"?>
<svg width="256px" height="256px" viewBox="0 0 256 256" version="1.1" xmlns="http://www.w3.org/2000/svg" xmlns:xlink="http://www.w3.org/1999/xlink" preserveAspectRatio="xMidYMid">
    <g>
        <path d="M126.916,0.072 C64.427,0.072 12.25,5.555 12.25,12.863 C12.25,14.293 12.83,15.672 13.91,16.902 C15.04,18.182 16.67,19.312 18.7,20.222 C22.79,22.062 28.38,23.002 34.73,23.002 L42.76,23.002 L42.76,33.012 C42.76,40.232 48.5,45.972 55.72,45.972 L200.28,45.972 C207.5,45.972 213.24,40.232 213.24,33.012 L213.24,23.002 L221.27,23.002 C227.62,23.002 233.21,22.062 237.3,20.222 C239.33,19.312 240.96,18.182 242.09,16.902 C243.17,15.672 243.75,14.293 243.75,12.863 C243.75,5.555 191.573,0.072 129.084,0.072 L126.916,0.072 Z M42.76,165.432 L42.76,210.022 C42.76,217.242 48.5,222.982 55.72,222.982 L200.28,222.982 C207.5,222.982 213.24,217.242 213.24,210.022 L213.24,165.432 L42.76,165.432 Z M128,45.972 C64.427,45.972 12.25,51.455 12.25,58.763 C12.25,60.193 12.83,61.572 13.91,62.802 C15.04,64.082 16.67,65.212 18.7,66.122 C22.79,67.962 28.38,68.902 34.73,68.902 L221.27,68.902 C227.62,68.902 233.21,67.962 237.3,66.122 C239.33,65.212 240.96,64.082 242.09,62.802 C243.17,61.572 243.75,60.193 243.75,58.763 C243.75,51.455 191.573,45.972 128,45.972 Z" fill="#3776AB"></path>
        <path d="M128,91.972 C64.427,91.972 12.25,97.455 12.25,104.763 C12.25,106.193 12.83,107.572 13.91,108.802 C15.04,110.082 16.67,111.212 18.7,112.122 C22.79,113.962 28.38,114.902 34.73,114.902 L221.27,114.902 C227.62,114.902 233.21,113.962 237.3,112.122 C239.33,111.212 240.96,110.082 242.09,108.802 C243.17,107.572 243.75,106.193 243.75,104.763 C243.75,97.455 191.573,91.972 128,91.972 Z" fill="#FFD43B"></path>
    </g>
</svg> 